<!-- Generator: Adobe Illustrator 19.0.0, SVG Export Plug-In  -->
<svg version="1.1"
	 xmlns="http://www.w3.org/2000/svg" xmlns:xlink="http://www.w3.org/1999/xlink" xmlns:a="http://ns.adobe.com/AdobeSVGViewerExtensions/3.0/"
	 x="0px" y="0px" width="264.3px" height="512.2px" viewBox="0 0 264.3 512.2" style="enable-background:new 0 0 264.3 512.2;"
	 xml:space="preserve">
<style type="text/css">
	.st0{fill:#333333;}
</style>
<defs>
</defs>
<path id="XMLID_18_" class="st0" d="M227.9,512.2c35.6-7.6,37.1-33.1,36.2-61.8l-0.2-384.6c0.3-28.7-3.7-48.9-37-56.1
	c-16.3-3.5-33.6-6-50.6-7.6l0,0C127.3-2,80.7-0.4,37.2,8.9C3.9,16.1-0.1,36.3,0.2,65L0.1,449.5c-0.9,28.7,1.7,54.1,37.3,61.8
	 M246,458.7h-69.9h-89H18.2l-0.5-404h69.4h89h70.4L246,458.7z"/>
</svg>
